<svg width="16" height="17" viewBox="0 0 16 17" fill="none" xmlns="http://www.w3.org/2000/svg">
<rect y="0.884766" width="16" height="15.36" rx="1.10596" fill="#226AFA"/>
<rect x="3.33398" y="0.244873" width="1.33333" height="0.64" fill="#667282"/>
<rect x="12" y="0.244873" width="1.33333" height="0.64" fill="#667282"/>
<rect x="1.33203" y="2.80505" width="13.3333" height="0.64" fill="white"/>
<rect x="2" y="4.72485" width="2" height="1.92" rx="0.184326" fill="white"/>
<rect x="2" y="7.92493" width="2" height="1.92" rx="0.184326" fill="white"/>
<rect x="2" y="11.1249" width="2" height="1.92" rx="0.184326" fill="white"/>
<rect x="5.33398" y="4.72498" width="2" height="1.92" rx="0.184326" fill="white"/>
<rect x="5.33398" y="7.92493" width="2" height="1.92" rx="0.184326" fill="white"/>
<rect x="5.33398" y="11.125" width="2" height="1.92" rx="0.184326" fill="white"/>
<rect x="8.66797" y="4.72485" width="2" height="1.92" rx="0.184326" fill="white"/>
<rect x="8.66797" y="7.92493" width="2" height="1.92" rx="0.184326" fill="white"/>
<rect x="12" y="4.72498" width="2" height="1.92" rx="0.184326" fill="white"/>
</svg>
