<svg width="12" height="12" viewBox="0 0 12 12" fill="none" xmlns="http://www.w3.org/2000/svg">
<path fill-rule="evenodd" clip-rule="evenodd" d="M6.41733 10.9686C7.1073 10.0402 8.51035 8.13032 9.10044 7.16721C9.57256 6.3975 10 5.56444 10 4.58561C10 2.32892 8.20889 0.5 5.99967 0.5C3.79111 0.5 2 2.32892 2 4.58561C2 5.57329 2.42011 6.41997 2.91356 7.18492C3.51377 8.11694 4.9297 10.0362 5.62336 10.9685C5.822 11.2354 6.21884 11.2356 6.41733 10.9686ZM6 6C6.82835 6 7.5 5.32784 7.5 4.50033C7.5 3.67216 6.82835 3 6 3C5.17165 3 4.5 3.67216 4.5 4.50033C4.5 5.32784 5.17165 6 6 6Z" fill="#226AFA"/>
</svg>
