<svg width="70" height="26" viewBox="0 0 70 26" fill="none" xmlns="http://www.w3.org/2000/svg">
<path d="M32.1198 12.6871C30.8464 12.27 30.1566 12.1188 29.2963 12.1188C27.8864 12.1188 26.8063 12.6544 26.0028 13.7297C25.476 14.4452 25.2827 15.0749 25.1728 16.3874V21.0444C25.1728 22.9538 25.2297 24.0905 25.3926 25.5216H19.666C19.8328 24.0292 19.8858 22.9538 19.8858 21.0158V11.8244C19.8858 9.64509 19.829 8.60246 19.666 7.31861H25.1728V9.6778C26.5296 7.76837 28.1896 6.96289 30.7061 6.96289C31.593 6.96289 32.1463 7.02422 33.4463 7.3227L32.1198 12.6953V12.6871Z" fill="#226AFA"/>
<path d="M40.8899 7.3153C40.7232 8.53783 40.6701 9.73173 40.6701 11.8211V21.0125C40.6701 22.6234 40.7535 24.2344 40.8899 25.5183H35.1064C35.2732 24.0545 35.3263 22.9219 35.3263 21.0125V11.8211C35.3263 9.87893 35.2694 8.6564 35.1064 7.3153H40.8899ZM40.8065 0.6875V5.16464H35.1898V0.6875H40.8065Z" fill="#226AFA"/>
<path d="M48.6934 7.31561C48.7503 8.03114 48.8867 8.6608 49.2202 9.88332L51.7936 19.1647C51.8201 19.226 51.8505 19.3446 51.9035 19.4918C51.9869 19.7903 51.9869 19.8189 52.1233 20.3259C52.2067 20.056 52.2333 19.9088 52.2598 19.7903C52.2863 19.7289 52.3166 19.6431 52.3432 19.4918C52.4 19.3405 52.4265 19.2219 52.4531 19.132L55.0264 9.87924C55.3296 8.77528 55.4964 7.96981 55.5533 7.31152H61.6968C61.1434 8.65671 60.9236 9.22095 60.5636 10.2063L55.9171 23.0122C55.4471 24.296 55.3069 24.7744 55.1705 25.5186H49.1103C48.9701 24.7703 48.8337 24.296 48.3637 23.0122L43.7172 10.2063C43.5505 9.78928 43.1639 8.83252 42.5537 7.31152H48.6972L48.6934 7.31561Z" fill="#226AFA"/>
<path d="M69.1096 7.3153C68.9429 8.53783 68.8898 9.73173 68.8898 11.8211V21.0125C68.8898 22.6234 68.9732 24.2344 69.1096 25.5183H63.3262C63.4929 24.0545 63.546 22.9219 63.546 21.0125V11.8211C63.546 9.87893 63.4891 8.6564 63.3262 7.3153H69.1096ZM69.0263 0.6875V5.16464H63.4096V0.6875H69.0263Z" fill="#226AFA"/>
<path fill-rule="evenodd" clip-rule="evenodd" d="M13.3331 25.5178C13.1701 24.1154 13.1132 22.8029 13.1132 21.012V8.10987H7.43968V21.012C7.43968 22.8928 7.38662 24.1154 7.21986 25.5178H13.3331ZM7.43968 5.97168H13.1132V5.96966H16.2399C18.2335 5.96966 19.3136 6.03099 20.5567 6.17818V0.478516C19.2833 0.625709 18.1766 0.68704 16.2399 0.68704H4.12347C2.43315 0.68704 0.913379 0.597088 0 0.478516V6.17818C1.9632 5.99828 2.43315 5.96966 4.17653 5.96966H7.43968V5.97168Z" fill="#226AFA"/>
</svg>
