<svg width="20" height="22" viewBox="0 0 20 22" fill="none" xmlns="http://www.w3.org/2000/svg">
<mask id="path-1-inside-1_332_7064" fill="white">
<path fill-rule="evenodd" clip-rule="evenodd" d="M13.5566 8.76227C13.5566 11.5411 11.1935 13.9531 8.07855 13.9531C4.96359 13.9531 2.60054 11.5411 2.60054 8.76227C2.60054 5.98341 4.96359 3.57149 8.07855 3.57149C11.1935 3.57149 13.5566 5.98341 13.5566 8.76227ZM16.1571 8.76227C16.1571 13.0653 12.5402 16.5536 8.07855 16.5536C3.61689 16.5536 0 13.0653 0 8.76227C0 4.45924 3.61689 0.970947 8.07855 0.970947C12.5402 0.970947 16.1571 4.45924 16.1571 8.76227ZM13.0532 16.0709L18.1941 21.029L19.9994 19.1572L14.8585 14.1991L13.0532 16.0709Z"/>
</mask>
<path d="M18.1941 21.029L16.3888 22.9009L18.2606 24.7062L20.0659 22.8343L18.1941 21.029ZM13.0532 16.0709L11.1813 14.2656L9.37606 16.1375L11.2479 17.9428L13.0532 16.0709ZM19.9994 19.1572L21.8712 20.9625L23.6765 19.0907L21.8046 17.2854L19.9994 19.1572ZM14.8585 14.1991L16.6637 12.3273L14.7919 10.522L12.9866 12.3938L14.8585 14.1991ZM8.07855 16.5536C12.5535 16.5536 16.1571 13.0525 16.1571 8.76227H10.956C10.956 10.0298 9.83353 11.3525 8.07855 11.3525V16.5536ZM0 8.76227C0 13.0525 3.60361 16.5536 8.07855 16.5536V11.3525C6.32357 11.3525 5.20108 10.0298 5.20108 8.76227H0ZM8.07855 0.970947C3.60361 0.970947 0 4.47209 0 8.76227H5.20108C5.20108 7.49474 6.32357 6.17203 8.07855 6.17203V0.970947ZM16.1571 8.76227C16.1571 4.47209 12.5535 0.970947 8.07855 0.970947V6.17203C9.83353 6.17203 10.956 7.49474 10.956 8.76227H16.1571ZM8.07855 19.1541C13.8869 19.1541 18.7576 14.5895 18.7576 8.76227H13.5566C13.5566 11.5411 11.1935 13.9531 8.07855 13.9531V19.1541ZM-2.60054 8.76227C-2.60054 14.5895 2.27019 19.1541 8.07855 19.1541V13.9531C4.96359 13.9531 2.60054 11.5411 2.60054 8.76227H-2.60054ZM8.07855 -1.62959C2.27019 -1.62959 -2.60054 2.93507 -2.60054 8.76227H2.60054C2.60054 5.98341 4.96359 3.57149 8.07855 3.57149V-1.62959ZM18.7576 8.76227C18.7576 2.93507 13.8869 -1.62959 8.07855 -1.62959V3.57149C11.1935 3.57149 13.5566 5.98341 13.5566 8.76227H18.7576ZM19.9994 19.1572L14.8585 14.1991L11.2479 17.9428L16.3888 22.9009L19.9994 19.1572ZM18.1275 17.3519L16.3222 19.2238L20.0659 22.8343L21.8712 20.9625L18.1275 17.3519ZM13.0532 16.0709L18.1941 21.029L21.8046 17.2854L16.6637 12.3273L13.0532 16.0709ZM14.925 17.8762L16.7303 16.0044L12.9866 12.3938L11.1813 14.2656L14.925 17.8762Z" fill="#226AFA" mask="url(#path-1-inside-1_332_7064)"/>
</svg>
