<svg width="25" height="24" viewBox="0 0 25 24" fill="none" xmlns="http://www.w3.org/2000/svg">
<rect x="0.798828" width="24" height="24" rx="12" fill="#226AFA"/>
<path d="M9.20421 12.8951C9.20421 13.1684 9.21349 13.3688 9.24008 13.5828H8.24256C8.26977 13.3688 8.27843 13.1822 8.27843 12.8951V10.5989H7.74596C7.46148 10.5989 7.3848 10.6033 7.06445 10.6308V9.76074C7.21349 9.77884 7.46148 9.79257 7.7373 9.79257H9.71442C10.0304 9.79257 10.211 9.78321 10.4188 9.76074V10.6308C10.216 10.6083 10.0397 10.5989 9.71442 10.5989H9.20421V12.8951Z" fill="white"/>
<path d="M12.3056 11.6238C12.0978 11.5601 11.9852 11.537 11.8449 11.537C11.6148 11.537 11.4386 11.6188 11.3074 11.7829C11.2215 11.8921 11.1899 11.9882 11.172 12.1886V12.8995C11.172 13.1909 11.1813 13.3644 11.2079 13.5829H10.2734C10.3006 13.3551 10.3093 13.1909 10.3093 12.8951V11.4921C10.3093 11.1594 10.3 11.0003 10.2734 10.8043H11.172V11.1644C11.3934 10.873 11.6643 10.75 12.0749 10.75C12.2196 10.75 12.3099 10.7594 12.522 10.8049L12.3056 11.625V11.6238Z" fill="white"/>
<path d="M13.7367 10.8047C13.7095 10.9913 13.7008 11.1735 13.7008 11.4924V12.8955C13.7008 13.1414 13.7144 13.3873 13.7367 13.5832H12.793C12.8202 13.3598 12.8288 13.1869 12.8288 12.8955V11.4924C12.8288 11.196 12.8196 11.0094 12.793 10.8047H13.7367ZM13.7231 9.79297V10.4764H12.8066V9.79297H13.7231Z" fill="white"/>
<path d="M15.0097 10.8043C15.0189 10.9136 15.0412 11.0097 15.0956 11.1963L15.5155 12.613C15.5199 12.6224 15.5248 12.6405 15.5335 12.663C15.5471 12.7085 15.5471 12.7129 15.5693 12.7903C15.5829 12.7491 15.5873 12.7266 15.5916 12.7085C15.5959 12.6992 15.6009 12.6861 15.6052 12.663C15.6145 12.6399 15.6188 12.6218 15.6231 12.608L16.0431 11.1957C16.0925 11.0271 16.1197 10.9042 16.129 10.8037H17.1315C17.0412 11.009 17.0053 11.0952 16.9466 11.2456L16.1884 13.2003C16.1117 13.3963 16.0888 13.4693 16.0666 13.5829H15.0777C15.0548 13.4687 15.0325 13.3963 14.9559 13.2003L14.1977 11.2456C14.1705 11.1819 14.1074 11.0359 14.0078 10.8037H15.0103L15.0097 10.8043Z" fill="white"/>
<path d="M18.3422 10.8047C18.3149 10.9913 18.3063 11.1735 18.3063 11.4924V12.8955C18.3063 13.1414 18.3199 13.3873 18.3422 13.5832H17.3984C17.4256 13.3598 17.4343 13.1869 17.4343 12.8955V11.4924C17.4343 11.196 17.425 11.0094 17.3984 10.8047H18.3422ZM18.3286 9.79297V10.4764H17.412V9.79297H18.3286Z" fill="white"/>
<path fill-rule="evenodd" clip-rule="evenodd" d="M9.46983 6.36895C9.4 6.33792 9.32068 6.33604 9.24947 6.36373L6.00505 7.62545C5.89485 7.66831 5.82227 7.77442 5.82227 7.89266V16.657C5.82227 16.8587 6.02494 16.9973 6.21288 16.9242L9.35828 15.701L12.6948 16.9986C12.7617 17.0246 12.8358 17.0246 12.9026 16.9986L16.2392 15.701L19.3846 16.9242C19.5725 16.9973 19.7752 16.8587 19.7752 16.657V7.89266C19.7752 7.77442 19.7026 7.66831 19.5924 7.62545L16.348 6.36373C16.2768 6.33604 16.1975 6.33792 16.1276 6.36895L12.7987 7.84846L9.46983 6.36895ZM9.45385 8.72203V6.57101L12.7031 8.01513V8.71887V8.81444H12.8943V8.71887V8.01517L16.1436 6.57104V8.71864V8.81421H16.3347V8.71864V6.56364L19.5231 7.80359C19.5599 7.81787 19.5841 7.85325 19.5841 7.89266V16.657C19.5841 16.7243 19.5165 16.7705 19.4539 16.7461L16.3347 15.5331L16.3347 14.6544V14.5589L16.1436 14.5589L16.1436 14.6544L16.1436 15.5331L12.8943 16.7968V14.6495V14.554H12.7031V14.6495V16.7967L9.45383 15.5331V14.6495L9.45383 14.554H9.2627V14.6495L9.2627 15.5331L6.14361 16.7461C6.08096 16.7705 6.0134 16.7243 6.0134 16.657V7.89266C6.0134 7.85325 6.0376 7.81787 6.07433 7.80359L9.26272 6.56366V8.72203V8.8176H9.45385V8.72203Z" fill="white"/>
<path d="M9.24947 6.36373L9.20098 6.23903V6.23904L9.24947 6.36373ZM9.46983 6.36895L9.41549 6.49121L9.41549 6.49121L9.46983 6.36895ZM6.00505 7.62545L5.95656 7.50075H5.95656L6.00505 7.62545ZM6.21288 16.9242L6.26138 17.0489H6.26138L6.21288 16.9242ZM9.35828 15.701L9.40678 15.5763L9.35828 15.5575L9.30979 15.5763L9.35828 15.701ZM12.6948 16.9986L12.6463 17.1233H12.6463L12.6948 16.9986ZM12.9026 16.9986L12.8542 16.8739H12.8542L12.9026 16.9986ZM16.2392 15.701L16.2877 15.5763L16.2392 15.5575L16.1907 15.5763L16.2392 15.701ZM19.3846 16.9242L19.4331 16.7995L19.3846 16.9242ZM19.5924 7.62545L19.5439 7.75015L19.5924 7.62545ZM16.348 6.36373L16.3965 6.23904V6.23904L16.348 6.36373ZM16.1276 6.36895L16.182 6.49121V6.49121L16.1276 6.36895ZM12.7987 7.84846L12.7444 7.97073L12.7987 7.99488L12.8531 7.97073L12.7987 7.84846ZM9.45385 6.57101L9.50819 6.44875L9.32006 6.36513V6.57101H9.45385ZM12.7031 8.01513H12.8369V7.92818L12.7575 7.89287L12.7031 8.01513ZM12.7031 8.81444H12.5693V8.94824H12.7031V8.81444ZM12.8943 8.81444V8.94824H13.0281V8.81444H12.8943ZM12.8943 8.01517L12.8399 7.89291L12.7605 7.92822V8.01517H12.8943ZM16.1436 6.57104H16.2774V6.36516L16.0892 6.44878L16.1436 6.57104ZM16.1436 8.81421H16.0098V8.94801H16.1436V8.81421ZM16.3347 8.81421V8.94801H16.4685V8.81421H16.3347ZM16.3347 6.56364L16.3832 6.43894L16.2009 6.36805V6.56364H16.3347ZM19.5231 7.80359L19.5716 7.67889L19.5231 7.80359ZM19.4539 16.7461L19.4054 16.8708L19.4054 16.8708L19.4539 16.7461ZM16.3347 15.5331L16.2009 15.5331L16.2009 15.6246L16.2862 15.6578L16.3347 15.5331ZM16.3347 14.6544H16.2009V14.6544L16.3347 14.6544ZM16.3347 14.5589H16.4685V14.4251H16.3347L16.3347 14.5589ZM16.1436 14.5589L16.1436 14.4251L16.0098 14.4251L16.0098 14.5589L16.1436 14.5589ZM16.1436 14.6544L16.2774 14.6544L16.1436 14.6544ZM16.1436 15.5331L16.1921 15.6578L16.2774 15.6247V15.5331L16.1436 15.5331ZM12.8943 16.7968H12.7605V16.9923L12.9428 16.9215L12.8943 16.7968ZM12.8943 14.554H13.0281V14.4202H12.8943V14.554ZM12.7031 14.554V14.4202H12.5693V14.554H12.7031ZM12.7031 16.7967L12.6546 16.9214L12.8369 16.9923V16.7967H12.7031ZM9.45383 15.5331H9.32004V15.6246L9.40534 15.6578L9.45383 15.5331ZM9.45383 14.6495H9.58763H9.45383ZM9.45383 14.554H9.58763L9.58763 14.4202H9.45383V14.554ZM9.2627 14.554V14.4202H9.1289V14.554H9.2627ZM9.2627 14.6495H9.1289H9.2627ZM9.2627 15.5331L9.31119 15.6578L9.39649 15.6246V15.5331H9.2627ZM6.14361 16.7461L6.1921 16.8708L6.1921 16.8708L6.14361 16.7461ZM6.07433 7.80359L6.12282 7.92829L6.12283 7.92829L6.07433 7.80359ZM9.26272 6.56366H9.39651V6.36807L9.21422 6.43896L9.26272 6.56366ZM9.26272 8.8176H9.12892V8.95139H9.26272V8.8176ZM9.45385 8.8176V8.95139H9.58765V8.8176H9.45385ZM9.29796 6.48843C9.33594 6.47366 9.37825 6.47466 9.41549 6.49121L9.52417 6.24669C9.42176 6.20117 9.30542 6.19842 9.20098 6.23903L9.29796 6.48843ZM6.05355 7.75015L9.29796 6.48843L9.20098 6.23904L5.95656 7.50075L6.05355 7.75015ZM5.95606 7.89266C5.95606 7.8296 5.99477 7.773 6.05355 7.75015L5.95656 7.50075C5.79493 7.56361 5.68847 7.71924 5.68847 7.89266H5.95606ZM5.95606 16.657V7.89266H5.68847V16.657H5.95606ZM6.16439 16.7995C6.06415 16.8385 5.95606 16.7646 5.95606 16.657H5.68847C5.68847 16.9528 5.98573 17.1561 6.26138 17.0489L6.16439 16.7995ZM9.30979 15.5763L6.16439 16.7995L6.26138 17.0489L9.40678 15.8257L9.30979 15.5763ZM12.7433 16.8739L9.40678 15.5763L9.30979 15.8257L12.6463 17.1233L12.7433 16.8739ZM12.8542 16.8739C12.8185 16.8877 12.779 16.8877 12.7433 16.8739L12.6463 17.1233C12.7444 17.1614 12.8531 17.1614 12.9511 17.1233L12.8542 16.8739ZM16.1907 15.5763L12.8542 16.8739L12.9511 17.1233L16.2877 15.8257L16.1907 15.5763ZM19.4331 16.7995L16.2877 15.5763L16.1907 15.8257L19.3361 17.0489L19.4331 16.7995ZM19.6414 16.657C19.6414 16.7646 19.5333 16.8385 19.4331 16.7995L19.3361 17.0489C19.6117 17.1561 19.909 16.9528 19.909 16.657H19.6414ZM19.6414 7.89266V16.657H19.909V7.89266H19.6414ZM19.5439 7.75015C19.6027 7.773 19.6414 7.8296 19.6414 7.89266H19.909C19.909 7.71924 19.8025 7.56361 19.6409 7.50075L19.5439 7.75015ZM16.2995 6.48843L19.5439 7.75015L19.6409 7.50075L16.3965 6.23904L16.2995 6.48843ZM16.182 6.49121C16.2192 6.47466 16.2615 6.47366 16.2995 6.48843L16.3965 6.23904C16.292 6.19842 16.1757 6.20117 16.0733 6.24669L16.182 6.49121ZM12.8531 7.97073L16.182 6.49121L16.0733 6.24669L12.7444 7.7262L12.8531 7.97073ZM9.41549 6.49121L12.7444 7.97073L12.8531 7.7262L9.52417 6.24669L9.41549 6.49121ZM9.32006 6.57101V8.72203H9.58765V6.57101H9.32006ZM12.7575 7.89287L9.50819 6.44875L9.39951 6.69328L12.6488 8.1374L12.7575 7.89287ZM12.8369 8.71887V8.01513H12.5693V8.71887H12.8369ZM12.8369 8.81444V8.71887H12.5693V8.81444H12.8369ZM12.8943 8.68065H12.7031V8.94824H12.8943V8.68065ZM12.7605 8.71887V8.81444H13.0281V8.71887H12.7605ZM12.7605 8.01517V8.71887H13.0281V8.01517H12.7605ZM16.0892 6.44878L12.8399 7.89291L12.9486 8.13743L16.1979 6.6933L16.0892 6.44878ZM16.2774 8.71864V6.57104H16.0098V8.71864H16.2774ZM16.2774 8.81421V8.71864H16.0098V8.81421H16.2774ZM16.3347 8.68042H16.1436V8.94801H16.3347V8.68042ZM16.2009 8.71864V8.81421H16.4685V8.71864H16.2009ZM16.2009 6.56364V8.71864H16.4685V6.56364H16.2009ZM19.5716 7.67889L16.3832 6.43894L16.2862 6.68834L19.4746 7.92829L19.5716 7.67889ZM19.7179 7.89266C19.7179 7.79806 19.6598 7.71318 19.5716 7.67889L19.4746 7.92829C19.46 7.92257 19.4503 7.90843 19.4503 7.89266H19.7179ZM19.7179 16.657V7.89266H19.4503V16.657H19.7179ZM19.4054 16.8708C19.5557 16.9293 19.7179 16.8184 19.7179 16.657H19.4503C19.4503 16.6301 19.4773 16.6117 19.5024 16.6214L19.4054 16.8708ZM16.2862 15.6578L19.4054 16.8708L19.5024 16.6214L16.3832 15.4084L16.2862 15.6578ZM16.2009 14.6544L16.2009 15.5331L16.4685 15.5331L16.4685 14.6544L16.2009 14.6544ZM16.2009 14.5589V14.6544H16.4685V14.5589H16.2009ZM16.1436 14.6927L16.3347 14.6927L16.3347 14.4251L16.1436 14.4251L16.1436 14.6927ZM16.2774 14.6544L16.2773 14.5589L16.0098 14.5589L16.0098 14.6544L16.2774 14.6544ZM16.2774 15.5331L16.2774 14.6544L16.0098 14.6544L16.0098 15.5331L16.2774 15.5331ZM12.9428 16.9215L16.1921 15.6578L16.0951 15.4084L12.8458 16.6721L12.9428 16.9215ZM12.7605 14.6495V16.7968H13.0281V14.6495H12.7605ZM12.7605 14.554V14.6495H13.0281V14.554H12.7605ZM12.7031 14.6878H12.8943V14.4202H12.7031V14.6878ZM12.8369 14.6495V14.554H12.5693V14.6495H12.8369ZM12.8369 16.7967V14.6495H12.5693V16.7967H12.8369ZM9.40534 15.6578L12.6546 16.9214L12.7516 16.672L9.50233 15.4084L9.40534 15.6578ZM9.32004 14.6495V15.5331H9.58763V14.6495H9.32004ZM9.32004 14.554L9.32004 14.6495H9.58763L9.58763 14.554H9.32004ZM9.2627 14.6878H9.45383V14.4202H9.2627V14.6878ZM9.39649 14.6495V14.554H9.1289V14.6495H9.39649ZM9.39649 15.5331L9.39649 14.6495H9.1289L9.1289 15.5331H9.39649ZM6.1921 16.8708L9.31119 15.6578L9.2142 15.4084L6.09511 16.6214L6.1921 16.8708ZM5.87961 16.657C5.87961 16.8184 6.04175 16.9293 6.1921 16.8708L6.09512 16.6214C6.12017 16.6117 6.1472 16.6301 6.1472 16.657H5.87961ZM5.87961 7.89266V16.657H6.1472V7.89266H5.87961ZM6.02584 7.67889C5.93768 7.71318 5.87961 7.79807 5.87961 7.89266H6.1472C6.1472 7.90842 6.13752 7.92257 6.12282 7.92829L6.02584 7.67889ZM9.21422 6.43896L6.02584 7.67889L6.12283 7.92829L9.31121 6.68836L9.21422 6.43896ZM9.39651 8.72203V6.56366H9.12892V8.72203H9.39651ZM9.39651 8.8176V8.72203H9.12892V8.8176H9.39651ZM9.45385 8.6838H9.26272V8.95139H9.45385V8.6838ZM9.32006 8.72203V8.8176H9.58765V8.72203H9.32006Z" fill="white"/>
</svg>
